<svg width="26" height="26" viewBox="0 0 26 26" fill="none" xmlns="http://www.w3.org/2000/svg">
<g id="Group 427319180">
<path id="Vector" d="M13 25C6.36471 25 1 19.6353 1 13C1 6.36471 6.36471 1 13 1C19.6353 1 25 6.36471 25 13C25 19.6353 19.6353 25 13 25ZM13 2.41176C7.14118 2.41176 2.41176 7.14118 2.41176 13C2.41176 18.8588 7.14118 23.5882 13 23.5882C18.8588 23.5882 23.5882 18.8588 23.5882 13C23.5882 7.14118 18.8588 2.41176 13 2.41176Z" fill="#BA9775" stroke="#BA9775" stroke-width="0.2"/>
<path id="Vector_2" d="M11.5884 18.2236L5.44727 12.0824L6.4355 11.0942L11.5884 16.2471L19.5649 8.27063L20.5531 9.25887L11.5884 18.2236Z" fill="#BA9775" stroke="#BA9775" stroke-width="0.2"/>
</g>
</svg>
