<svg width="25" height="22" viewBox="0 0 25 22" fill="none" xmlns="http://www.w3.org/2000/svg">
<path d="M12.4087 0C5.68652 0 0.186523 4.37556 0.186523 9.77778C0.217212 11.0766 0.5344 12.3527 1.11543 13.5147C1.69645 14.6768 2.52697 15.6961 3.54763 16.5C3.54763 17.2333 3.0343 19.1522 0.186523 22C3.08319 21.8656 5.85763 20.7778 8.0943 18.9444C9.48763 19.3478 10.9543 19.5556 12.4087 19.5556C19.131 19.5556 24.631 15.18 24.631 9.77778C24.631 4.37556 19.131 0 12.4087 0ZM12.4087 17.1111C7.00652 17.1111 2.63097 13.8233 2.63097 9.77778C2.63097 5.73222 7.00652 2.44444 12.4087 2.44444C17.811 2.44444 22.1865 5.73222 22.1865 9.77778C22.1865 13.8233 17.811 17.1111 12.4087 17.1111Z" fill="white"/>
</svg>
