<svg width="23" height="23" viewBox="0 0 23 23" fill="none" xmlns="http://www.w3.org/2000/svg">
<path d="M20.2969 21.7071C20.6874 22.0976 21.3206 22.0976 21.7111 21.7071C22.1017 21.3166 22.1017 20.6834 21.7111 20.2929L17.7965 16.3782C18.3633 15.6764 18.8277 14.8955 19.1742 14.0588C19.6489 12.913 19.8932 11.6848 19.8932 10.4446C19.8932 9.20429 19.6489 7.97615 19.1742 6.83029C18.6996 5.68442 18.0039 4.64326 17.1269 3.76625C16.2499 2.88924 15.2087 2.19356 14.0629 1.71892C12.917 1.24429 11.6889 1 10.4486 1C9.20831 1 7.98018 1.24429 6.83431 1.71892C5.68845 2.19356 4.64729 2.88924 3.77028 3.76625C1.99908 5.53745 1.00403 7.93971 1.00403 10.4446C1.00403 12.9494 1.99908 15.3517 3.77028 17.1229C5.54148 18.8941 7.94374 19.8891 10.4486 19.8891C12.6178 19.8891 14.7102 19.1429 16.3823 17.7925L20.2969 21.7071Z" stroke="white" stroke-width="2" stroke-linecap="round" stroke-linejoin="round"/>
</svg>
