<svg width="22" height="20" viewBox="0 0 22 20" fill="none" xmlns="http://www.w3.org/2000/svg">
<g id="Frame 427319810">
<g id="Group 427319459">
<g id="Group 135">
<g id="Group">
<path id="Vector" d="M11 14C12.0609 14 13.0783 13.5786 13.8284 12.8284C14.5786 12.0783 15 11.0609 15 10C15 8.93913 14.5786 7.92172 13.8284 7.17157C13.0783 6.42143 12.0609 6 11 6C9.93913 6 8.92172 6.42143 8.17157 7.17157C7.42143 7.92172 7 8.93913 7 10C7 11.0609 7.42143 12.0783 8.17157 12.8284C8.92172 13.5786 9.93913 14 11 14Z" stroke="#4E5053" stroke-width="1.5" stroke-linecap="round" stroke-linejoin="round"/>
<path id="Vector_2" d="M2 14V6C2 4.67392 2.52678 3.40215 3.46447 2.46447C4.40215 1.52678 5.67392 1 7 1H15C16.3261 1 17.5979 1.52678 18.5355 2.46447C19.4732 3.40215 20 4.67392 20 6V14C20 15.3261 19.4732 16.5979 18.5355 17.5355C17.5979 18.4732 16.3261 19 15 19H7C5.67392 19 4.40215 18.4732 3.46447 17.5355C2.52678 16.5979 2 15.3261 2 14Z" stroke="#4E5053" stroke-width="1.5"/>
<path id="Vector_3" d="M16.5 4.51002L16.51 4.49902" stroke="#4E5053" stroke-width="1.5" stroke-linecap="round" stroke-linejoin="round"/>
</g>
</g>
</g>
</g>
</svg>
