<svg width="24" height="22" viewBox="0 0 24 22" fill="none" xmlns="http://www.w3.org/2000/svg">
<path d="M22.9886 2.48536L20.6727 0.169561C20.4469 -0.0563088 20.0805 -0.0566351 19.8545 0.169271C19.8545 0.169416 19.8544 0.169561 19.8541 0.169561L12.9069 7.11708C12.8531 7.17078 12.8104 7.23456 12.7813 7.30477C12.7523 7.37497 12.7373 7.45022 12.7373 7.52622V9.84217C12.7373 10.1618 12.9965 10.421 13.3161 10.421H15.6321C15.7856 10.421 15.9327 10.3601 16.0412 10.2515L22.9886 3.30408C23.2147 3.07821 23.2148 2.71181 22.9891 2.4858C22.9889 2.4858 22.9889 2.48551 22.9886 2.48536ZM15.3923 9.26324H13.8951V7.76616L20.2635 1.39771L21.7607 2.89479L15.3923 9.26324Z" fill="white"/>
<path d="M21.421 6.94734C21.1014 6.94734 20.8422 7.20657 20.8422 7.5262V15.6315C20.8413 16.5903 20.0642 17.3674 19.1054 17.3685H13.3158C13.1905 17.3682 13.0685 17.4088 12.9684 17.4842L9.26321 20.2632V17.9474C9.26321 17.6277 9.00406 17.3685 8.68425 17.3685H2.89476C1.93596 17.3674 1.15886 16.5903 1.15803 15.6316V5.21039C1.15904 4.25173 1.93596 3.47467 2.89476 3.47366H13.3158C13.6356 3.47366 13.8948 3.2145 13.8948 2.89473C13.8948 2.57507 13.6356 2.31592 13.3158 2.31592H2.89476C1.2967 2.31748 0.00155898 3.61259 0 5.21036V15.6316C0.00155898 17.2295 1.2967 18.5247 2.89476 18.5264H8.10533V21.4211C8.10533 21.7408 8.36448 21.9999 8.68425 21.9999C8.80959 21.9999 8.93141 21.9593 9.03165 21.8842L13.5095 18.5262H19.1054C20.7035 18.5247 21.9985 17.2295 22.0001 15.6315V7.52634C22.0001 7.20657 21.7408 6.94734 21.421 6.94734Z" fill="white"/>
<path d="M9.84197 5.78955H4.05274C3.73282 5.78955 3.47367 6.04874 3.47367 6.36855C3.47367 6.68817 3.73282 6.94733 4.05274 6.94733H9.84197C10.1617 6.94733 10.4211 6.68817 10.4211 6.36851C10.4211 6.04874 10.1617 5.78955 9.84197 5.78955ZM4.05274 10.4212H9.84197C10.1617 10.4212 10.421 10.1619 10.421 9.84223C10.421 9.52246 10.1617 9.26324 9.84197 9.26324H4.05274C3.73282 9.26324 3.47363 9.52246 3.47363 9.84223C3.47363 10.1619 3.73282 10.4212 4.05274 10.4212ZM4.05274 13.8947H17.9474C18.2672 13.8947 18.5262 13.6356 18.5262 13.3158C18.5262 12.9961 18.2671 12.737 17.9474 12.737H4.05274C3.73282 12.737 3.47363 12.9961 3.47363 13.3158C3.47363 13.6355 3.73282 13.8947 4.05274 13.8947Z" fill="white"/>
</svg>
