<svg width="18" height="22" viewBox="0 0 18 22" fill="none" xmlns="http://www.w3.org/2000/svg">
<path d="M1.80961 22C1.32991 21.9979 0.87049 21.8062 0.531513 21.4668C0.192535 21.1274 0.00148113 20.6677 0 20.188V2.21174C0.000638659 1.62535 0.233866 1.06315 0.64851 0.64851C1.06315 0.233866 1.62535 0.000638659 2.21174 0H15.0801C15.6665 0.000638659 16.2286 0.233866 16.6433 0.64851C17.0579 1.06315 17.2912 1.62535 17.2918 2.21174V20.1872C17.2919 20.5075 17.207 20.8221 17.0458 21.0989C16.8845 21.3757 16.6527 21.6047 16.3739 21.7625C16.0952 21.9204 15.7796 22.0014 15.4593 21.9973C15.139 21.9933 14.8255 21.9043 14.5509 21.7394L9.16305 18.5063C9.00682 18.4125 8.82807 18.363 8.6459 18.363C8.46373 18.363 8.28498 18.4125 8.12876 18.5063L2.74015 21.7394C2.45944 21.9093 2.13771 21.9994 1.80961 22ZM8.6459 17.1567C9.04683 17.1565 9.44025 17.2655 9.78394 17.472L15.1717 20.7051C15.2633 20.7601 15.3677 20.7897 15.4745 20.7911C15.5812 20.7925 15.6864 20.7655 15.7793 20.7129C15.8722 20.6603 15.9495 20.584 16.0033 20.4918C16.0571 20.3996 16.0854 20.2947 16.0854 20.188V2.21174C16.0852 1.94518 15.9792 1.68959 15.7907 1.5011C15.6022 1.31261 15.3466 1.20662 15.0801 1.2064H2.21174C1.94518 1.20662 1.68959 1.31261 1.5011 1.5011C1.31261 1.68959 1.20662 1.94518 1.2064 2.21174V20.1872C1.20627 20.294 1.2345 20.3989 1.28822 20.4913C1.34193 20.5836 1.4192 20.66 1.51213 20.7127C1.60505 20.7654 1.7103 20.7924 1.81711 20.7911C1.92393 20.7898 2.02847 20.7601 2.12006 20.7051L7.50866 17.472C7.85213 17.2657 8.24524 17.1567 8.6459 17.1567Z" fill="white"/>
</svg>
